<svg xmlns="http://www.w3.org/2000/svg" data-name="Layer 1" viewBox="0 0 512 512" id="employee"><path fill="#66c1ff" d="M333.64 504.5H37.81a30 30 0 0 1-30-30v-40.62l2.25-23.24c.06-.68.14-1.35.22-2C14 378.47 36.52 354 66 346.75l73.42-13.46 63.14-95.15 63.88 94.5 7.3 1.42 65.38 12.69c29.49 7.26 52 31.72 55.73 61.87.09.67.16 1.34.23 2l2.25 23.24c3.67 37.86-25.88 70.64-63.69 70.64Z"></path><path fill="#ffcd85" d="m146.79 322.21 55.79-84.07 56.44 83.49-56.44 50.1-55.79-49.52z"></path><path fill="#ffc166" d="m202.58 238.14-7.43 11.2 40.42 59.79a17.2 17.2 0 0 1-2.83 22.51l-37.66 33.43 7.5 6.66 56.42-50.1Z"></path><path fill="#ff4e4e" d="M321.76 504.5v-61.25a7.5 7.5 0 0 1 15 0v61.25Z"></path><path fill="#f66" d="m246.89 408.32 42.52-52.8a4 4 0 0 0 .28-4.63l-20.26-32.27a4 4 0 0 0-6-.87l-60.81 54 38.42 37a4 4 0 0 0 5.85-.43zm-89.25-.85-41.36-51.35a5 5 0 0 1-.3-5.86L135.6 320a5 5 0 0 1 7.51-1l59.53 52.77L165 407.94a5 5 0 0 1-7.36-.47z"></path><path fill="#4eb7ff" d="m246.89 408.32 42.52-52.8a4 4 0 0 0 .28-4.63l-20.26-32.27a4 4 0 0 0-6-.87l-60.81 54 38.42 37a4 4 0 0 0 5.85-.43zm-89.25-.85-41.36-51.35a5 5 0 0 1-.3-5.86L135.6 320a5 5 0 0 1 7.51-1l59.53 52.77L165 407.94a5 5 0 0 1-7.36-.47z"></path><path fill="#676e87" d="m248.47 176.72-122.4-1.3v-55.68c0-15.86 13.71-32.81 30.62-32.81h117.39a5 5 0 0 1 5 5V148c0 15.86-13.7 28.72-30.61 28.72Z"></path><path fill="#595f74" d="M274.08 86.93h-30a5 5 0 0 1 5 5V148c0 15.85-13.7 28.71-30.61 28.71l-92.4 21.67v7l122.4-28.7c16.91 0 30.61-12.86 30.61-28.71V91.93a5 5 0 0 0-5-5Z"></path><path fill="#ffcd85" d="M141.07 161.72h123a15 15 0 0 1 15 15v62.64a76.51 76.51 0 0 1-76.51 76.51 76.51 76.51 0 0 1-76.51-76.51v-62.64a15 15 0 0 1 15-15Z"></path><path fill="#ffc166" d="M264.08 161.72h-30a15 15 0 0 1 15 15v62.63a76.53 76.53 0 0 1-61.5 75 77.15 77.15 0 0 0 15 1.48 76.51 76.51 0 0 0 76.5-76.51v-62.6a15 15 0 0 0-15-15Z"></path><path fill="#ffcd85" d="M279.08 186h13.44a12.91 12.91 0 0 1 12.91 12.91V219a12.91 12.91 0 0 1-12.91 12.91h-13.44V186Z"></path><path fill="#ffc166" d="M126.07 231.96h-13.44a12.91 12.91 0 0 1-12.91-12.91v-20.09a12.91 12.91 0 0 1 12.91-12.91h13.44v45.91Z"></path><rect width="227.41" height="171.27" x="277.09" y="333.23" fill="#ffc166" rx="16.9"></rect><path fill="#ffb74e" d="M487.6 333.23h-30a16.9 16.9 0 0 1 16.9 16.9V487.6a16.89 16.89 0 0 1-16.9 16.9h30a16.89 16.89 0 0 0 16.9-16.9V350.13a16.9 16.9 0 0 0-16.9-16.9Z"></path><path fill="#ffae36" d="M504.5 384.63 402 435.78a28 28 0 0 1-22.36 0l-102.55-51.15v-34.5a16.9 16.9 0 0 1 16.91-16.9h193.6a16.9 16.9 0 0 1 16.9 16.9Z"></path><path fill="#ffa41f" d="M499.55 338.18a17.12 17.12 0 0 0-2.5-2.06 16.8 16.8 0 0 0-9.45-2.89h-30a16.9 16.9 0 0 1 16.9 16.9v49.46l30-15v-34.5a16.84 16.84 0 0 0-4.95-11.91Z"></path><rect width="45.99" height="45.99" x="367.8" y="415.11" fill="#676e87" rx="7"></rect><path fill="#595f74" d="M406.79 415.11h-15a7 7 0 0 1 7 7v32a7 7 0 0 1-7 7h15a7 7 0 0 0 7-7v-32a7 7 0 0 0-7-7Z"></path><path fill="#272a33" d="M235.91 213.2a7.5 7.5 0 0 0 7.5-7.5V196a7.5 7.5 0 0 0-15 0v9.68a7.5 7.5 0 0 0 7.5 7.52ZM487.6 325.73h-30.31v-14.84a26.2 26.2 0 0 0-26.18-26.17h-80.64a26.2 26.2 0 0 0-26.17 26.17v14.84H294a24.27 24.27 0 0 0-9.9 2.11l-8.29-13.21a11.5 11.5 0 0 0-15.17-4l-4.48-6.63a83.87 83.87 0 0 0 30.42-64.56h5.94A20.43 20.43 0 0 0 312.93 219v-20.1a20.43 20.43 0 0 0-20.41-20.41h-5.94v-7.89a16.3 16.3 0 0 0-2.76-9.09 34.71 34.71 0 0 0 2.76-13.5V91.93a12.51 12.51 0 0 0-12.5-12.5H156.69c-21.82 0-38.12 21.28-38.12 40.31v58.78h-5.94a20.44 20.44 0 0 0-20.41 20.41V219a20.44 20.44 0 0 0 20.41 20.41h5.94a83.88 83.88 0 0 0 31 65l-4.45 6.71a13.41 13.41 0 0 0-15.12 1.5l-20.09 16.7a13.74 13.74 0 0 0-2 2.13l-43.2 7.92-.44.1c-32.65 8-57.32 35.45-61.4 68.31-.09.73-.18 1.46-.24 2.14L.34 433.16V474.5A37.54 37.54 0 0 0 37.81 512h250.83a7.42 7.42 0 0 0 1.89-.25 24.58 24.58 0 0 0 3.47.25h193.6a24.42 24.42 0 0 0 24.4-24.4V350.13a24.43 24.43 0 0 0-24.4-24.4Zm-201-132.21h5.94a5.41 5.41 0 0 1 5.41 5.41V219a5.41 5.41 0 0 1-5.41 5.41h-5.94Zm-168 30.92h-5.94a5.42 5.42 0 0 1-5.41-5.41v-20.1a5.42 5.42 0 0 1 5.41-5.41h5.94Zm15-104.7c0-11.47 10.31-25.31 23.12-25.31h114.86V148a19.32 19.32 0 0 1-1 6.22H136.07a17.21 17.21 0 0 0-2.5.2Zm0 119.61v-67.63a2.5 2.5 0 0 1 2.5-2.5h134.09a1.38 1.38 0 0 1 1.39 1.38v68.75a69.08 69.08 0 0 1-69 69 69.09 69.09 0 0 1-69.01-69Zm115.56 81-46.56 41.33-46-40.75 5.35-8.06a83.72 83.72 0 0 0 81.81-.37ZM138.61 325l53 47-29.36 28.26L120.57 340ZM83.4 497v-53.75a7.5 7.5 0 0 0-15 0V497H37.81a22.52 22.52 0 0 1-22.5-22.5v-40.26l2.22-22.94c0-.59.12-1.17.19-1.75C21 383 41.06 360.71 67.6 354.09l39.51-7.25c.12.18.22.36.34.54l43.43 62.81a13.53 13.53 0 0 0 9.76 5.76q.68.06 1.35.06a13.45 13.45 0 0 0 9.36-3.77l31.26-30.07 33.19 31.93a11.52 11.52 0 0 0 8 3.22h.72a11.5 11.5 0 0 0 8.23-4.26l16.85-20.93v95.5a24.31 24.31 0 0 0 1.89 9.4Zm186.18-146.87v18.06l-26.13 32.45L213.63 372l50.19-44.55.1-.09 1.36-1.21 7.51 12a24.17 24.17 0 0 0-3.21 11.98Zm69.72-39.24a11.18 11.18 0 0 1 11.17-11.17h80.64a11.18 11.18 0 0 1 11.18 11.17v14.84h-103ZM497 487.6a9.4 9.4 0 0 1-9.4 9.4H294a9.41 9.41 0 0 1-9.4-9.4v-90.85l75.72 37.77v19.59a14.52 14.52 0 0 0 14.5 14.5h32a14.52 14.52 0 0 0 14.5-14.5v-19.59L497 396.75Zm-121.7-34v-31h31v31ZM497 380l-76.3 38.06a14.52 14.52 0 0 0-13.91-10.44h-32a14.53 14.53 0 0 0-13.92 10.44L284.58 380v-29.87a9.41 9.41 0 0 1 9.4-9.4H487.6a9.41 9.41 0 0 1 9.4 9.4Zm-294.42 29.5a7.5 7.5 0 1 0 7.5 7.5 7.5 7.5 0 0 0-7.5-7.5Zm0 60a7.5 7.5 0 1 0 7.5 7.5 7.5 7.5 0 0 0-7.5-7.5Zm0-30a7.5 7.5 0 1 0 7.5 7.5 7.5 7.5 0 0 0-7.5-7.5Zm-33.34-226.3a7.5 7.5 0 0 0 7.5-7.5V196a7.5 7.5 0 1 0-15 0v9.68a7.5 7.5 0 0 0 7.5 7.52Zm11 55.9a40.64 40.64 0 0 0 21.7 6.74h.72a41.31 41.31 0 0 0 22.43-6.75 7.5 7.5 0 0 0-8.26-12.52 25.61 25.61 0 0 1-28.33 0 7.5 7.5 0 0 0-8.26 12.52Z"></path></svg>