<svg xmlns="http://www.w3.org/2000/svg" viewBox="0 0 512 512" id="employee"><path fill="#f8664f" d="M470.243 435.612V487.2c0 11.844-9.601 21.445-21.445 21.445H59.388c-11.844 0-21.445-9.601-21.445-21.445v-51.588l-.002-.012c5.538-34.466 26.293-64.362 55.866-82.482 12.905-7.904 26.078-14.948 38.284-20.97 23.067-11.453 42.908-19.357 51.833-22.744 3.172-1.344 5.001-1.936 5.001-1.936h130.283s1.774.591 4.893 1.828c8.926 3.387 28.659 11.292 51.726 22.744 12.313 6.076 25.594 13.173 38.499 21.077 29.627 18.12 50.328 48.016 55.92 82.482"></path><path fill="#fff" d="M66.871 412.322a3.257 3.257 0 0 1-1.366-4.399c4.896-9.305 11.215-17.726 18.647-25.081a3.256 3.256 0 1 1 4.58 4.63c-7.006 6.936-12.903 14.817-17.461 23.483a3.258 3.258 0 0 1-4.4 1.367zm29.627-35.883a3.256 3.256 0 0 1 .771-4.54c3.844-2.731 6.749-4.4 7.587-4.928a3.261 3.261 0 0 1 4.488 1.039 3.259 3.259 0 0 1-1.038 4.487c-.555.349-3.812 2.261-7.266 4.712a3.258 3.258 0 0 1-4.542-.77z"></path><path fill="#f9e109" d="M315.812 252.21v148.232l-61.719 65.811-61.808-65.811V252.21zM379.491 184.996c0 12.723-10.248 23.021-22.873 23.021-12.674 0-22.922-10.298-22.922-23.021 0-12.674 10.248-23.022 22.922-23.022 12.625.001 22.873 10.348 22.873 23.022zm-205.064 0c0 12.723-10.248 23.021-22.922 23.021-12.625 0-22.873-10.298-22.873-23.021 0-12.674 10.248-23.022 22.873-23.022 12.674.001 22.922 10.348 22.922 23.022z"></path><path fill="#f9e109" d="M353.128 150.96v57.996c0 53.91-41.057 100.272-94.315 102.67-56.91 2.753-103.756-43.076-103.756-99.828V150.96c0-2.131.089-4.263.267-6.394 1.86-13.94 6.544-26.687 15.675-37.302 4.044-5.042 8.546-8.459 10.152-9.77 3.815-3.805 13.456-5.354 20.662-.355 12.469 8.526 31.26 14.033 52.278 14.033 21.019 0 39.721-5.506 52.19-14.033 6.145-4.175 14.339-4.263 20.395.178.089.088.178.088.267.177a64.062 64.062 0 0 1 13.448 13.855c8.504 12.337 12.737 25.462 12.737 39.611z"></path><path fill="#eef0ee" d="m254.093 466.253-61.808-65.812-15.625-16.668a4.95 4.95 0 0 1-.887-5.452l6.029-13.133c1.371-2.987-.495-6.457-3.744-6.958l-26.044-4.022c-3.856-.595-5.54-5.21-2.974-8.149l43.245-49.532c30.993 64.303 14.784 97.52 61.808 169.726zm72.202-101.064 6.029 13.133a4.95 4.95 0 0 1-.887 5.452l-15.625 16.668-61.719 65.812c46.935-72.207 30.726-105.423 61.719-169.725l43.245 49.532c2.566 2.939.882 7.553-2.974 8.149l-26.044 4.022c-3.248.501-5.115 3.97-3.744 6.957z"></path><path fill="#878787" d="m371.748 114.635-14.249 66.434h-4.364V150.96c0-21.335-10.021-41.101-26.199-53.471-6.029-4.61-14.402-4.657-20.653-.351-12.427 8.561-31.174 14.033-52.183 14.033-21.017 0-39.826-5.476-52.276-14.042-6.252-4.302-14.625-4.248-20.649.366-16.151 12.371-26.11 32.134-26.11 53.465v30.108h-4.453l-14.249-66.434c-5.166-24.157-1.069-49.914 13.448-69.897 10.776-14.921 26.184-26.378 44.619-32.151 19.772-6.128 39.81-9.237 59.671-9.237 19.772 0 39.81 3.108 59.581 9.237 18.436 5.773 33.843 17.23 44.709 32.151 14.426 19.984 18.523 45.74 13.357 69.898z"></path><path d="M418.045 334.849c1.811 1.057 6.062 3.606 7.821 4.742a3.258 3.258 0 0 0 4.503-.971 3.258 3.258 0 0 0-.972-4.502c-1.917-1.235-6.061-3.723-8.07-4.895a3.258 3.258 0 0 0-3.282 5.626zm58.833 48.81a142.956 142.956 0 0 0-33.083-39.027 3.256 3.256 0 1 0-4.137 5.03 136.525 136.525 0 0 1 31.582 37.255 3.256 3.256 0 1 0 5.638-3.258z"></path><path d="M416.028 350.341c-11.676-7.151-24.717-14.291-38.754-21.218-19.971-9.915-37.264-17.09-46.929-20.901l-11.275-12.915v-4.245c22.307-18.998 36.608-47.645 37.262-79.806 14.546.191 26.418-11.693 26.418-26.259 0-11.425-7.305-21.133-17.454-24.741l9.638-44.937v-.003c10.437-48.789-16.381-92.09-60.288-105.839-38.769-12.018-79.298-12.982-121.19.003-43.253 13.546-70.796 56.64-60.278 105.839l9.64 44.939c-10.141 3.611-17.44 13.318-17.44 24.739 0 15.313 13.085 26.886 26.425 26.262v.54c0 29.936 13.07 59.487 37.227 79.655v3.853l-11.379 13.033c-10.576 4.154-27.537 11.224-46.999 20.887-13.902 6.859-26.87 13.963-38.545 21.113-30.849 18.902-51.763 49.791-57.38 84.742-.064.423-.03-3.128-.038 52.116 0 13.621 11.08 24.702 24.702 24.702H448.8c13.622 0 24.702-11.081 24.702-24.702-.003-55.923.024-51.738-.041-52.121-5.681-34.999-26.615-65.885-57.433-84.736zm-59.424-2.139c.886 1.013.294 2.585-1.018 2.788l-26.045 4.021c-5.386.833-8.482 6.578-6.205 11.536l6.03 13.133c.288.628.168 1.36-.305 1.865l-57.495 61.316c28.665-55.23 20.632-87.074 45.074-140.436a919055.58 919055.58 0 0 0 39.964 45.777zM254.092 460.159c-43.042-68.321-28.349-100.507-58.079-163.348 18.603 13.011 40.542 19.162 62.948 18.069 19.839-.894 38.101-7.621 53.336-18.525-29.984 63.049-15.159 95.336-58.205 163.804zm-75.539-105.147-26.043-4.021c-1.314-.204-1.902-1.777-1.018-2.788l39.965-45.776c24.369 53.209 16.541 85.459 45.135 140.436l-57.556-61.316a1.689 1.689 0 0 1-.305-1.865l6.03-13.133c2.278-4.962-.822-10.705-6.208-11.537zm197.683-170.016c0 11.01-9.012 19.946-19.85 19.747v-20.419h1.114a3.259 3.259 0 0 0 3.185-2.574l3.223-15.028c7.202 2.93 12.328 9.983 12.328 18.274zM195.393 15.697c37.458-11.613 76.666-12.605 117.313-.003 40.389 12.646 65.66 52.434 55.856 98.257l-12.172 56.758v-19.75c0-21.947-10.271-42.904-27.478-56.06-7.124-5.447-16.965-5.623-24.478-.444-12.416 8.552-30.762 13.458-50.335 13.458-19.606 0-37.988-4.909-50.429-13.468-7.521-5.176-17.359-4.988-24.476.463-17.148 13.135-27.386 34.089-27.386 56.051v20.154l-12.261-57.16c-9.856-46.084 16.008-85.781 55.846-98.256zm-63.504 169.299c0-8.288 5.119-15.343 12.314-18.275l3.224 15.029a3.26 3.26 0 0 0 3.185 2.574h1.188v20.42c-10.213.429-19.911-8.275-19.911-19.748zm26.424 26.803v-30.693c0-.013.008-.024.008-.038v-30.107c0-19.949 9.284-38.97 24.832-50.881 4.875-3.73 11.632-3.841 16.825-.267 13.502 9.288 33.228 14.615 54.121 14.615 20.86 0 40.555-5.324 54.03-14.608 5.185-3.576 11.953-3.474 16.828.256 15.606 11.931 24.921 30.953 24.921 50.885v23.675h-.005v34.321c0 53.444-40.062 97.114-91.216 99.418-54.731 2.641-100.344-41.246-100.344-96.576zm-117.114 275.4v-51.354c5.381-32.961 25.163-62.091 54.309-79.95 11.505-7.048 24.298-14.054 38.029-20.83 13.07-6.489 25.11-11.828 34.579-15.807l-21.529 24.659c-4.25 4.865-1.457 12.524 4.931 13.51l26.04 4.021a1.694 1.694 0 0 1 1.285 2.381l-6.03 13.133a8.172 8.172 0 0 0 1.471 9.037l76.554 81.543v37.845H59.388c-10.029.001-18.189-8.158-18.189-18.188zm425.787 0c0 10.029-8.159 18.189-18.189 18.189H257.351v-37.846L333.813 386a8.174 8.174 0 0 0 1.471-9.037l-6.03-13.133a1.693 1.693 0 0 1 1.282-2.381l26.043-4.021c6.39-.986 9.179-8.646 4.931-13.51l-21.621-24.765a617.981 617.981 0 0 1 34.498 15.808c13.866 6.843 26.73 13.886 38.24 20.935 29.121 17.811 48.921 46.94 54.36 79.953v51.35zM113.382 92.579a3.256 3.256 0 0 0 3.384-3.123c.142-3.552.509-7.298 1.086-11.136a3.256 3.256 0 0 0-2.735-3.704 3.255 3.255 0 0 0-3.707 2.735c-.613 4.071-1 8.055-1.153 11.843a3.257 3.257 0 0 0 3.125 3.385zm4.951-30.971a3.255 3.255 0 0 0 4.142-2.011c5.56-16.042 15.043-29.828 26.961-40.857a3.258 3.258 0 0 0-4.427-4.781c-12.419 11.499-22.676 26.15-28.686 43.505a3.256 3.256 0 0 0 2.01 4.144z"></path><path d="M215.88 168.952a3.258 3.258 0 0 0 5.658-3.226c-7.056-12.376-24.887-12.394-31.953 0a3.257 3.257 0 0 0 5.658 3.226c4.559-7.993 16.071-8.006 20.637 0zm71.984 1.217a3.261 3.261 0 0 0 4.442-1.216c4.559-7.994 16.07-8.007 20.636 0a3.258 3.258 0 0 0 5.658-3.226c-7.056-12.376-24.887-12.394-31.953 0a3.258 3.258 0 0 0 1.217 4.442zm5.712 76.724a3.258 3.258 0 0 0-4.819-4.384c-18.577 20.417-50.756 20.412-69.328 0a3.253 3.253 0 0 0-4.6-.216 3.258 3.258 0 0 0-.219 4.6c21.164 23.255 57.807 23.249 78.966 0z"></path></svg>